<?xml version="1.0" encoding="UTF-8"?>
<svg xmlns="http://www.w3.org/2000/svg" xmlns:xlink="http://www.w3.org/1999/xlink" width="229px" height="px" viewBox="0 0 228 150" version="1.1">
<defs>
<filter id="alpha" filterUnits="objectBoundingBox" x="0%" y="0%" width="100%" height="100%">
  <feColorMatrix type="matrix" in="SourceGraphic" values="0 0 0 0 1 0 0 0 0 1 0 0 0 0 1 0 0 0 1 0"/>
</filter>
<mask id="mask0">
  <g filter="url(#alpha)">
<rect x="0" y="0" width="228" height="150" style="fill:rgb(0%,0%,0%);fill-opacity:0.101961;stroke:none;"/>
  </g>
</mask>
<clipPath id="clip1">
  <rect x="0" y="0" width="228" height="150"/>
</clipPath>
<g id="surface5" clip-path="url(#clip1)">
<path style=" stroke:none;fill-rule:nonzero;fill:rgb(0%,0%,0%);fill-opacity:1;" d="M 63.558594 37.054688 L 36.636719 25.542969 C 35.769531 25.097656 36.582031 25.78125 37.03125 24.914062 L 40.414062 11.136719 L 73.394531 28.121094 L 65.058594 38.449219 C 64.609375 39.316406 64.429688 37.503906 63.558594 37.054688 Z M 63.558594 37.054688 "/>
</g>
<mask id="mask1">
  <g filter="url(#alpha)">
<rect x="0" y="0" width="228" height="150" style="fill:rgb(0%,0%,0%);fill-opacity:0.101961;stroke:none;"/>
  </g>
</mask>
<clipPath id="clip2">
  <rect x="0" y="0" width="228" height="150"/>
</clipPath>
<g id="surface8" clip-path="url(#clip2)">
<path style=" stroke:none;fill-rule:nonzero;fill:rgb(0%,0%,0%);fill-opacity:1;" d="M 68.988281 26.550781 L 62.058594 40.054688 L 37.53125 27.421875 L 44.460938 13.917969 L 53.675781 26.171875 Z M 68.988281 26.550781 "/>
</g>
</defs>
<g id="surface1">
<path style=" stroke:none;fill-rule:nonzero;fill:rgb(94.901961%,94.901961%,94.901961%);fill-opacity:1;" d="M 47.214844 64.964844 C 35.683594 65.019531 26.296875 65.1875 26.296875 65.1875 C 26.296875 65.1875 37.453125 50.386719 47.171875 55.871094 C 56.890625 61.355469 68.054688 64.996094 68.054688 64.996094 C 68.054688 64.996094 58.746094 64.914062 47.214844 64.964844 Z M 47.214844 64.964844 "/>
<path style=" stroke:none;fill-rule:nonzero;fill:rgb(100%,39.607843%,51.764706%);fill-opacity:1;" d="M 178.925781 66.945312 C 178.925781 68.28125 177.84375 69.363281 176.511719 69.363281 C 175.175781 69.363281 174.09375 68.28125 174.09375 66.945312 C 174.09375 65.609375 175.175781 64.523438 176.511719 64.523438 C 177.84375 64.523438 178.925781 65.609375 178.925781 66.945312 Z M 178.925781 66.945312 "/>
<path style=" stroke:none;fill-rule:nonzero;fill:rgb(24.705882%,23.921569%,33.72549%);fill-opacity:1;" d="M 158.828125 104.769531 L 176.886719 83.996094 L 177.445312 84.480469 L 159.382812 105.253906 Z M 158.828125 104.769531 "/>
<path style=" stroke:none;fill-rule:nonzero;fill:rgb(24.705882%,23.921569%,33.72549%);fill-opacity:1;" d="M 181.054688 84.238281 C 181.054688 86.390625 179.316406 88.132812 177.167969 88.132812 C 175.019531 88.132812 173.277344 86.390625 173.277344 84.238281 C 173.277344 82.085938 175.019531 80.34375 177.167969 80.34375 C 179.316406 80.34375 181.054688 82.085938 181.054688 84.238281 Z M 181.054688 84.238281 "/>
<path style=" stroke:none;fill-rule:nonzero;fill:rgb(24.705882%,23.921569%,33.72549%);fill-opacity:1;" d="M 166.035156 97.042969 C 166.035156 97.042969 173.464844 87.648438 163.960938 81.207031 "/>
<path style=" stroke:none;fill-rule:nonzero;fill:rgb(24.705882%,23.921569%,33.72549%);fill-opacity:1;" d="M 44.816406 113.53125 C 58.195312 138.382812 86.589844 149.050781 86.589844 149.050781 C 86.589844 149.050781 93.292969 119.429688 79.914062 94.578125 C 66.535156 69.726562 38.140625 59.058594 38.140625 59.058594 C 38.140625 59.058594 31.4375 88.679688 44.816406 113.53125 Z M 44.816406 113.53125 "/>
<path style=" stroke:none;fill-rule:nonzero;fill:rgb(76.470588%,2.745098%,24.705882%);fill-opacity:1;" d="M 54.011719 105.355469 C 78.164062 119.910156 87.46875 148.824219 87.46875 148.824219 C 87.46875 148.824219 57.609375 154.132812 33.457031 139.578125 C 9.300781 125.023438 0 96.113281 0 96.113281 C 0 96.113281 29.859375 90.800781 54.011719 105.355469 Z M 54.011719 105.355469 "/>
<path style=" stroke:none;fill-rule:nonzero;fill:rgb(24.705882%,23.921569%,33.72549%);fill-opacity:1;" d="M 150.113281 105.5625 C 125.832031 119.902344 116.277344 148.730469 116.277344 148.730469 C 116.277344 148.730469 146.085938 154.304688 170.367188 139.964844 C 194.648438 125.625 204.207031 96.796875 204.207031 96.796875 C 204.207031 96.796875 174.394531 91.222656 150.113281 105.5625 Z M 150.113281 105.5625 "/>
<path style=" stroke:none;fill-rule:nonzero;fill:rgb(76.470588%,2.745098%,24.705882%);fill-opacity:1;" d="M 158.621094 114.453125 C 145.023438 139.183594 116.539062 149.601562 116.539062 149.601562 C 116.539062 149.601562 110.097656 119.917969 123.695312 95.1875 C 137.292969 70.457031 165.777344 60.039062 165.777344 60.039062 C 165.777344 60.039062 172.21875 89.722656 158.621094 114.453125 Z M 158.621094 114.453125 "/>
<path style=" stroke:none;fill-rule:nonzero;fill:rgb(18.431373%,18.039216%,25.490196%);fill-opacity:1;" d="M 109.277344 46.382812 C 106.367188 43.746094 105.960938 39.316406 108.339844 36.195312 C 108.1875 36.335938 108.039062 36.484375 107.898438 36.640625 C 105.101562 39.738281 105.34375 44.519531 108.433594 47.320312 C 111.523438 50.117188 116.296875 49.878906 119.09375 46.78125 C 119.234375 46.625 119.367188 46.460938 119.492188 46.296875 C 116.628906 48.980469 112.1875 49.019531 109.277344 46.382812 Z M 109.277344 46.382812 "/>
<path style=" stroke:none;fill-rule:nonzero;fill:rgb(18.431373%,18.039216%,25.490196%);fill-opacity:1;" d="M 117.984375 36.179688 C 117.984375 44.777344 111.027344 51.75 102.441406 51.75 C 93.855469 51.75 86.898438 44.777344 86.898438 36.179688 C 86.898438 27.582031 93.855469 20.613281 102.441406 20.613281 C 111.027344 20.613281 117.984375 27.582031 117.984375 36.179688 Z M 117.984375 36.179688 "/>
<path style=" stroke:none;fill-rule:nonzero;fill:rgb(100%,72.156863%,72.156863%);fill-opacity:1;" d="M 98.171875 56.183594 L 98.632812 54.984375 L 90.25 62.089844 L 80.117188 67.808594 C 80.117188 67.808594 74.957031 47.878906 74.589844 47.511719 C 74.222656 47.140625 67.589844 33.117188 64.640625 39.761719 C 61.691406 46.402344 70.351562 50.277344 70.351562 50.277344 C 70.351562 50.277344 70.628906 74.546875 79.472656 74.359375 C 88.316406 74.175781 99.277344 66.148438 99.460938 65.410156 C 99.644531 64.671875 98.171875 56.183594 98.171875 56.183594 Z M 98.171875 56.183594 "/>
<path style=" stroke:none;fill-rule:nonzero;fill:rgb(100%,72.156863%,72.156863%);fill-opacity:1;" d="M 109.777344 42.898438 C 109.777344 47.992188 105.65625 52.125 100.566406 52.125 C 95.480469 52.125 91.355469 47.992188 91.355469 42.898438 C 91.355469 37.800781 95.480469 33.671875 100.566406 33.671875 C 105.65625 33.671875 109.777344 37.800781 109.777344 42.898438 Z M 109.777344 42.898438 "/>
<path style=" stroke:none;fill-rule:nonzero;fill:rgb(100%,72.156863%,72.156863%);fill-opacity:1;" d="M 102.410156 49.539062 C 102.410156 49.539062 104.804688 52.679688 104.066406 53.046875 C 103.332031 53.417969 99.09375 53.601562 96.515625 56.738281 C 93.933594 59.875 99.644531 67.808594 99.644531 67.808594 L 121.386719 53.230469 L 112.542969 50.277344 C 112.542969 50.277344 106.460938 46.957031 106.648438 43.453125 Z M 102.410156 49.539062 "/>
<path style=" stroke:none;fill-rule:nonzero;fill:rgb(18.431373%,18.039216%,25.490196%);fill-opacity:1;" d="M 131.753906 149.882812 L 107.207031 149.882812 C 105.816406 139.699219 105.171875 130.367188 105.171875 130.367188 C 105.171875 130.367188 104.816406 139.753906 103.859375 149.882812 L 72.324219 149.882812 C 76.792969 119.894531 97.988281 87.371094 97.988281 87.371094 C 97.988281 87.371094 98.171875 82.941406 98.726562 82.203125 C 99.277344 81.464844 95.59375 81.28125 93.933594 75.746094 C 92.921875 72.367188 93.832031 70.15625 94.695312 68.949219 C 94.992188 68.511719 95.359375 68.128906 95.777344 67.808594 C 95.777344 67.808594 96.144531 63.9375 95.777344 63.382812 C 95.730469 63.308594 96.09375 63.054688 96.765625 62.667969 C 97.328125 62.34375 98.101562 61.925781 99.027344 61.449219 C 104.339844 58.691406 114.617188 53.808594 118.136719 52.148438 C 118.910156 51.78125 119.359375 51.570312 119.359375 51.570312 L 125.625 53.785156 C 130.597656 55.445312 130.597656 65.964844 130.597656 65.964844 L 130.316406 66.394531 L 122.796875 77.800781 L 118.4375 84.417969 C 119.542969 85.15625 117.332031 89.769531 117.332031 89.769531 C 117.332031 89.769531 120.484375 94.304688 123.042969 101.222656 C 124.492188 105.070312 125.480469 109.082031 125.988281 113.164062 C 126.308594 115.808594 126.375 118.480469 126.175781 121.140625 C 125.496094 130.03125 128.53125 140.835938 131.753906 149.882812 Z M 131.753906 149.882812 "/>
<path style=" stroke:none;fill-rule:nonzero;fill:rgb(100%,72.156863%,72.156863%);fill-opacity:1;" d="M 125.710938 54.871094 C 125.296875 54.640625 124.804688 54.601562 124.359375 54.769531 C 123.914062 54.933594 123.566406 55.289062 123.40625 55.734375 C 122.851562 57.265625 122.289062 60.449219 122.492188 67.070312 C 122.859375 79.25 123.042969 87.554688 123.042969 87.554688 L 123.042969 106.007812 C 123.042969 106.007812 114.9375 123.722656 119.359375 123.722656 C 123.78125 123.722656 126.914062 109.699219 126.914062 109.699219 C 126.914062 109.699219 130.964844 88.476562 129.675781 84.789062 C 129.675781 84.789062 133.3125 59.289062 125.710938 54.871094 Z M 125.710938 54.871094 "/>
<path style=" stroke:none;fill-rule:nonzero;fill:rgb(18.431373%,18.039216%,25.490196%);fill-opacity:1;" d="M 107.390625 34.710938 C 107.390625 31.726562 103.851562 29.3125 99.484375 29.3125 C 95.121094 29.3125 91.578125 31.726562 91.578125 34.710938 C 91.578125 37.691406 95.121094 40.109375 99.484375 40.109375 C 103.851562 40.109375 107.390625 37.691406 107.390625 34.710938 Z M 107.390625 34.710938 "/>
<path style=" stroke:none;fill-rule:nonzero;fill:rgb(18.431373%,18.039216%,25.490196%);fill-opacity:1;" d="M 119.585938 22.917969 C 119.585938 27.089844 116.210938 30.476562 112.039062 30.476562 C 107.871094 30.476562 104.496094 27.089844 104.496094 22.917969 C 104.496094 18.742188 107.871094 15.355469 112.039062 15.355469 C 116.210938 15.355469 119.585938 18.742188 119.585938 22.917969 Z M 119.585938 22.917969 "/>
<path style=" stroke:none;fill-rule:nonzero;fill:rgb(18.431373%,18.039216%,25.490196%);fill-opacity:1;" d="M 117.429688 28.316406 C 113.507812 28.316406 110.238281 25.300781 109.914062 21.386719 C 109.894531 21.59375 109.886719 21.804688 109.886719 22.015625 C 109.886719 26.191406 113.261719 29.574219 117.429688 29.574219 C 121.601562 29.574219 124.976562 26.191406 124.976562 22.015625 C 124.976562 21.804688 124.96875 21.59375 124.949219 21.386719 C 124.625 25.300781 121.355469 28.316406 117.429688 28.316406 Z M 117.429688 28.316406 "/>
<path style=" stroke:none;fill-rule:nonzero;fill:rgb(100%,72.156863%,72.156863%);fill-opacity:1;" d="M 109.851562 39.703125 C 109.664062 38.910156 109.230469 38.332031 108.882812 38.417969 C 108.539062 38.5 108.410156 39.210938 108.597656 40.003906 C 108.789062 40.796875 109.222656 41.371094 109.570312 41.289062 C 109.914062 41.207031 110.042969 40.496094 109.851562 39.703125 Z M 109.851562 39.703125 "/>
<path style=" stroke:none;fill-rule:nonzero;fill:rgb(94.901961%,94.901961%,94.901961%);fill-opacity:1;" d="M 109.871094 40.777344 C 109.871094 40.980469 109.707031 41.144531 109.503906 41.144531 C 109.300781 41.144531 109.132812 40.980469 109.132812 40.777344 C 109.132812 40.570312 109.300781 40.40625 109.503906 40.40625 C 109.707031 40.40625 109.871094 40.570312 109.871094 40.777344 Z M 109.871094 40.777344 "/>
<path style=" stroke:none;fill-rule:nonzero;fill:rgb(24.705882%,23.921569%,33.72549%);fill-opacity:1;" d="M 21.90625 72.386719 C 20.257812 72.386719 18.917969 71.046875 18.917969 69.390625 C 18.917969 67.738281 20.257812 66.398438 21.90625 66.398438 C 23.558594 66.398438 24.898438 67.738281 24.898438 69.390625 C 24.894531 71.046875 23.558594 72.386719 21.90625 72.386719 Z M 21.90625 66.894531 C 20.53125 66.894531 19.414062 68.011719 19.414062 69.390625 C 19.414062 70.769531 20.53125 71.886719 21.90625 71.886719 C 23.285156 71.886719 24.398438 70.769531 24.398438 69.390625 C 24.398438 68.015625 23.28125 66.898438 21.90625 66.894531 Z M 21.90625 66.894531 "/>
<path style=" stroke:none;fill-rule:nonzero;fill:rgb(24.705882%,23.921569%,33.72549%);fill-opacity:1;" d="M 151.355469 50.546875 L 144.878906 50.546875 L 144.878906 44.058594 L 151.355469 44.058594 Z M 145.375 50.050781 L 150.859375 50.050781 L 150.859375 44.558594 L 145.375 44.558594 Z M 145.375 50.050781 "/>
<path style=" stroke:none;fill-rule:nonzero;fill:rgb(94.901961%,94.901961%,94.901961%);fill-opacity:1;" d="M 207.1875 85.429688 C 195.65625 85.484375 186.269531 85.65625 186.269531 85.65625 C 186.269531 85.65625 197.425781 70.851562 207.144531 76.335938 C 216.863281 81.820312 228.027344 85.460938 228.027344 85.460938 C 228.027344 85.460938 218.71875 85.378906 207.1875 85.429688 Z M 207.1875 85.429688 "/>
<path style=" stroke:none;fill-rule:nonzero;fill:rgb(94.901961%,94.901961%,94.901961%);fill-opacity:1;" d="M 171.804688 35.515625 C 160.273438 35.566406 150.886719 35.738281 150.886719 35.738281 C 150.886719 35.738281 162.042969 20.9375 171.761719 26.421875 C 181.480469 31.90625 192.644531 35.546875 192.644531 35.546875 C 192.644531 35.546875 183.335938 35.460938 171.804688 35.515625 Z M 171.804688 35.515625 "/>
<path style=" stroke:none;fill-rule:nonzero;fill:rgb(94.901961%,94.901961%,94.901961%);fill-opacity:1;" d="M 62.5 41.90625 L 35.835938 28.171875 C 34.015625 27.234375 33.300781 24.996094 34.234375 23.171875 L 40.515625 10.933594 C 40.703125 10.578125 41.023438 10.308594 41.414062 10.195312 L 62.429688 4.058594 C 64.171875 3.546875 66.011719 4.496094 66.613281 6.214844 L 73.519531 25.941406 C 73.867188 26.9375 73.789062 28.035156 73.308594 28.972656 L 67.492188 40.300781 C 66.558594 42.125 64.320312 42.84375 62.5 41.90625 Z M 62.5 41.90625 "/>
<use xlink:href="#surface5" mask="url(#mask0)"/>
<path style=" stroke:none;fill-rule:nonzero;fill:rgb(76.470588%,2.745098%,24.705882%);fill-opacity:1;" d="M 38.460938 25.601562 L 49.210938 4.667969 C 49.726562 3.667969 50.953125 3.269531 51.957031 3.789062 L 72.855469 14.550781 C 73.859375 15.066406 74.253906 16.300781 73.738281 17.300781 L 62.988281 38.234375 C 62.476562 39.238281 61.246094 39.632812 60.242188 39.117188 L 39.34375 28.355469 C 38.34375 27.839844 37.949219 26.605469 38.460938 25.601562 Z M 38.460938 25.601562 "/>
<use xlink:href="#surface8" mask="url(#mask1)"/>
<path style=" stroke:none;fill-rule:nonzero;fill:rgb(94.901961%,94.901961%,94.901961%);fill-opacity:1;" d="M 53.285156 26.933594 L 41.476562 11.234375 C 41.328125 11.039062 41.089844 10.929688 40.84375 10.953125 C 40.597656 10.972656 40.378906 11.117188 40.265625 11.339844 L 33.546875 24.425781 C 32.980469 25.527344 33.414062 26.878906 34.515625 27.445312 L 63.789062 42.523438 C 64.890625 43.089844 66.238281 42.65625 66.804688 41.554688 L 73.410156 28.691406 C 73.546875 28.421875 73.539062 28.101562 73.382812 27.84375 C 73.230469 27.585938 72.953125 27.421875 72.652344 27.414062 Z M 53.285156 26.933594 "/>
<path style=" stroke:none;fill-rule:nonzero;fill:rgb(94.901961%,94.901961%,94.901961%);fill-opacity:1;" d="M 51.097656 6.195312 L 57.957031 9.730469 L 57.457031 10.703125 L 50.597656 7.167969 Z M 51.097656 6.195312 "/>
<path style=" stroke:none;fill-rule:nonzero;fill:rgb(94.901961%,94.901961%,94.901961%);fill-opacity:1;" d="M 48.726562 9.449219 L 69.097656 19.941406 L 68.8125 20.496094 L 48.441406 10.003906 Z M 48.726562 9.449219 "/>
<path style=" stroke:none;fill-rule:nonzero;fill:rgb(94.901961%,94.901961%,94.901961%);fill-opacity:1;" d="M 47.765625 11.324219 L 68.132812 21.816406 L 67.847656 22.371094 L 47.480469 11.878906 Z M 47.765625 11.324219 "/>
<path style=" stroke:none;fill-rule:nonzero;fill:rgb(94.901961%,94.901961%,94.901961%);fill-opacity:1;" d="M 46.800781 13.199219 L 67.171875 23.691406 L 66.886719 24.246094 L 46.515625 13.753906 Z M 46.800781 13.199219 "/>
<path style=" stroke:none;fill-rule:nonzero;fill:rgb(100%,100%,100%);fill-opacity:1;" d="M 52.410156 0.90625 C 50.84375 0.0976562 48.914062 0.71875 48.109375 2.292969 C 47.300781 3.867188 47.914062 5.800781 49.484375 6.609375 C 51.054688 7.414062 52.980469 6.792969 53.789062 5.21875 C 54.597656 3.644531 53.980469 1.714844 52.410156 0.90625 Z M 52.410156 0.90625 "/>
<path style=" stroke:none;fill-rule:nonzero;fill:rgb(34.117647%,72.156863%,58.039216%);fill-opacity:1;" d="M 52.660156 0.421875 C 50.785156 -0.542969 48.484375 0.195312 47.519531 2.074219 C 46.554688 3.949219 47.292969 6.257812 49.167969 7.222656 C 51.042969 8.1875 53.347656 7.449219 54.308594 5.570312 C 55.269531 3.691406 54.53125 1.390625 52.660156 0.421875 Z M 49.289062 5.277344 L 48.441406 2.636719 L 49.179688 2.398438 L 49.789062 4.300781 L 53.796875 3.011719 L 54.035156 3.753906 Z M 49.289062 5.277344 "/>
</g>
</svg>
